<svg width="190" height="56" viewBox="0 0 190 56" fill="none" xmlns="http://www.w3.org/2000/svg">
<g clip-path="url(#clip0_659_127)">
<path d="M0 11.8938C0 5.32504 5.65535 0 12.6316 0H177.368C184.345 0 190 5.32504 190 11.8938V44.1062C190 50.675 184.345 56 177.368 56H12.6316C5.65535 56 0 50.675 0 44.1062V11.8938Z" fill="#313437"/>
<path d="M79.822 21.9692C78.7978 21.9692 77.9163 21.7617 77.1774 21.3469C76.4428 20.9277 75.8767 20.3357 75.4791 19.5709C75.0816 18.8017 74.8828 17.8921 74.8828 16.842C74.8828 15.8179 75.0816 14.9191 75.4791 14.1456C75.8767 13.3721 76.4363 12.7693 77.1579 12.3371C77.8839 11.905 78.7352 11.689 79.7118 11.689C80.3686 11.689 80.9801 11.7948 81.5461 12.0066C82.1165 12.214 82.6135 12.5273 83.037 12.9464C83.4648 13.3656 83.7975 13.8928 84.0352 14.528C84.2728 15.1589 84.3917 15.8978 84.3917 16.7448V17.5032H75.9847V15.792H81.7925C81.7925 15.3944 81.706 15.0422 81.5332 14.7354C81.3603 14.4286 81.1205 14.1888 80.8137 14.0159C80.5112 13.8388 80.159 13.7502 79.7572 13.7502C79.338 13.7502 78.9664 13.8474 78.6423 14.0419C78.3225 14.232 78.0719 14.4891 77.8904 14.8132C77.7089 15.133 77.616 15.4895 77.6117 15.8827V17.5097C77.6117 18.0023 77.7024 18.4279 77.8839 18.7866C78.0697 19.1452 78.3312 19.4218 78.6682 19.6163C79.0053 19.8107 79.405 19.9079 79.8673 19.9079C80.1742 19.9079 80.455 19.8647 80.71 19.7783C80.9649 19.6919 81.1832 19.5622 81.3647 19.3894C81.5461 19.2165 81.6844 19.0048 81.7795 18.7542L84.3333 18.9227C84.2037 19.5363 83.9379 20.0721 83.5361 20.5302C83.1385 20.9839 82.6243 21.3383 81.9934 21.5932C81.3668 21.8438 80.643 21.9692 79.822 21.9692Z" fill="white"/>
<path d="M66.6558 16.0189V21.7748H63.8945V8.5H66.578V13.5753H66.6947C66.9194 12.9876 67.2824 12.5274 67.7836 12.1946C68.2849 11.8576 68.9136 11.6891 69.6699 11.6891C70.3612 11.6891 70.9641 11.8403 71.4783 12.1428C71.9968 12.441 72.3987 12.8709 72.6839 13.4327C72.9734 13.9901 73.116 14.6577 73.1117 15.4356V21.7748H70.3504V15.9282C70.3548 15.3146 70.1992 14.8371 69.8838 14.4957C69.5726 14.1543 69.1362 13.9836 68.5744 13.9836C68.1985 13.9836 67.8657 14.0636 67.5762 14.2235C67.291 14.3834 67.0663 14.6167 66.9021 14.9235C66.7422 15.226 66.6601 15.5911 66.6558 16.0189Z" fill="white"/>
<path d="M51.25 10.814V8.5H62.1525V10.814H58.0883V21.7748H55.3141V10.814H51.25Z" fill="white"/>
<path d="M165.458 36.5387V43.9391H161.908V31.1384H165.292V33.3968H165.442C165.725 32.6523 166.2 32.0634 166.867 31.63C167.534 31.1911 168.342 30.9717 169.292 30.9717C170.181 30.9717 170.956 31.1661 171.617 31.555C172.278 31.944 172.792 32.4995 173.159 33.2218C173.526 33.9385 173.709 34.7941 173.709 35.7886V43.9391H170.159V36.422C170.164 35.6386 169.964 35.0275 169.559 34.5885C169.153 34.1441 168.595 33.9218 167.884 33.9218C167.406 33.9218 166.983 34.0246 166.617 34.2302C166.256 34.4358 165.972 34.7358 165.767 35.1302C165.567 35.5192 165.464 35.9886 165.458 36.5387Z" fill="white"/>
<path d="M153.298 44.1891C152.004 44.1891 150.884 43.9141 149.94 43.364C149.001 42.8084 148.276 42.0362 147.765 41.0472C147.254 40.0527 146.998 38.8999 146.998 37.5887C146.998 36.2664 147.254 35.1108 147.765 34.1219C148.276 33.1274 149.001 32.3551 149.94 31.8051C150.884 31.2495 152.004 30.9717 153.298 30.9717C154.593 30.9717 155.71 31.2495 156.649 31.8051C157.593 32.3551 158.321 33.1274 158.832 34.1219C159.343 35.1108 159.599 36.2664 159.599 37.5887C159.599 38.8999 159.343 40.0527 158.832 41.0472C158.321 42.0362 157.593 42.8084 156.649 43.364C155.71 43.9141 154.593 44.1891 153.298 44.1891ZM153.315 41.4389C153.904 41.4389 154.396 41.2723 154.79 40.9389C155.185 40.6 155.482 40.1389 155.682 39.5555C155.887 38.9721 155.99 38.3082 155.99 37.5637C155.99 36.8192 155.887 36.1553 155.682 35.5719C155.482 34.9886 155.185 34.5274 154.79 34.1885C154.396 33.8496 153.904 33.6802 153.315 33.6802C152.721 33.6802 152.221 33.8496 151.815 34.1885C151.415 34.5274 151.112 34.9886 150.907 35.5719C150.707 36.1553 150.607 36.8192 150.607 37.5637C150.607 38.3082 150.707 38.9721 150.907 39.5555C151.112 40.1389 151.415 40.6 151.815 40.9389C152.221 41.2723 152.721 41.4389 153.315 41.4389Z" fill="white"/>
<path d="M141.122 43.9387V31.138H144.672V43.9387H141.122ZM142.905 29.4879C142.377 29.4879 141.924 29.3129 141.547 28.9628C141.174 28.6073 140.988 28.1822 140.988 27.6878C140.988 27.1988 141.174 26.7794 141.547 26.4294C141.924 26.0738 142.377 25.896 142.905 25.896C143.433 25.896 143.883 26.0738 144.255 26.4294C144.633 26.7794 144.822 27.1988 144.822 27.6878C144.822 28.1822 144.633 28.6073 144.255 28.9628C143.883 29.3129 143.433 29.4879 142.905 29.4879Z" fill="white"/>
<path d="M138.81 31.1381V33.8049H131.102V31.1381H138.81ZM132.852 28.0713H136.402V40.0053C136.402 40.3331 136.452 40.5887 136.552 40.772C136.652 40.9498 136.791 41.0748 136.969 41.147C137.152 41.2192 137.363 41.2554 137.602 41.2554C137.769 41.2554 137.935 41.2415 138.102 41.2137C138.269 41.1804 138.396 41.1554 138.485 41.1387L139.044 43.7805C138.866 43.8361 138.616 43.8999 138.294 43.9722C137.971 44.05 137.58 44.0972 137.119 44.1138C136.263 44.1472 135.513 44.0333 134.868 43.7722C134.23 43.511 133.732 43.1055 133.377 42.5554C133.021 42.0054 132.846 41.3109 132.852 40.472V28.0713Z" fill="white"/>
<path d="M122.039 44.1807C121.223 44.1807 120.495 44.0391 119.856 43.7557C119.217 43.4668 118.711 43.0418 118.339 42.4807C117.972 41.914 117.789 41.2084 117.789 40.3639C117.789 39.6527 117.92 39.0555 118.181 38.5721C118.442 38.0887 118.797 37.6998 119.247 37.4054C119.698 37.1109 120.209 36.8887 120.781 36.7387C121.359 36.5887 121.964 36.4831 122.598 36.422C123.342 36.3442 123.942 36.272 124.398 36.2053C124.853 36.1331 125.184 36.0275 125.389 35.8886C125.595 35.7497 125.698 35.5442 125.698 35.2719V35.2219C125.698 34.6941 125.531 34.2858 125.198 33.9968C124.87 33.7079 124.403 33.5635 123.798 33.5635C123.159 33.5635 122.65 33.7052 122.273 33.9885C121.895 34.2663 121.645 34.6163 121.523 35.0386L118.239 34.7719C118.406 33.9941 118.734 33.3218 119.222 32.7551C119.711 32.1829 120.342 31.7439 121.114 31.4384C121.892 31.1272 122.792 30.9717 123.814 30.9717C124.526 30.9717 125.206 31.055 125.856 31.2217C126.512 31.3884 127.092 31.6467 127.598 31.9967C128.109 32.3468 128.512 32.7968 128.806 33.3468C129.101 33.8913 129.248 34.5441 129.248 35.3053V43.9391H125.881V42.164H125.781C125.576 42.564 125.301 42.9168 124.956 43.2224C124.612 43.5224 124.198 43.7585 123.714 43.9307C123.231 44.0974 122.673 44.1807 122.039 44.1807ZM123.056 41.7306C123.578 41.7306 124.039 41.6278 124.439 41.4223C124.839 41.2111 125.153 40.9278 125.381 40.5722C125.609 40.2166 125.723 39.8138 125.723 39.3638V38.0054C125.612 38.0776 125.459 38.1443 125.264 38.2054C125.076 38.261 124.862 38.3138 124.623 38.3638C124.384 38.4082 124.145 38.4499 123.906 38.4888C123.667 38.5221 123.45 38.5527 123.256 38.5804C122.839 38.6416 122.475 38.7388 122.164 38.8721C121.853 39.0055 121.611 39.186 121.439 39.4138C121.267 39.6361 121.181 39.9138 121.181 40.2472C121.181 40.7306 121.356 41.1 121.706 41.3556C122.062 41.6056 122.512 41.7306 123.056 41.7306Z" fill="white"/>
<path d="M109.305 49.006C108.154 49.006 107.168 48.8477 106.346 48.531C105.529 48.2199 104.879 47.7948 104.396 47.2559C103.913 46.717 103.599 46.1114 103.454 45.4392L106.738 44.9975C106.838 45.253 106.996 45.4919 107.213 45.7142C107.429 45.9364 107.716 46.1142 108.071 46.2475C108.432 46.3864 108.871 46.4559 109.388 46.4559C110.16 46.4559 110.796 46.267 111.296 45.8892C111.802 45.5169 112.055 44.8919 112.055 44.0141V41.6723H111.905C111.749 42.0279 111.516 42.364 111.205 42.6807C110.893 42.9973 110.493 43.2557 110.005 43.4557C109.516 43.6557 108.932 43.7557 108.254 43.7557C107.293 43.7557 106.418 43.5335 105.629 43.089C104.846 42.639 104.221 41.9528 103.754 41.0306C103.293 40.1027 103.062 38.9305 103.062 37.5137C103.062 36.0636 103.299 34.8525 103.771 33.8802C104.243 32.9079 104.871 32.1801 105.654 31.6967C106.443 31.2134 107.307 30.9717 108.246 30.9717C108.963 30.9717 109.563 31.0939 110.046 31.3384C110.53 31.5773 110.918 31.8773 111.213 32.2384C111.513 32.594 111.744 32.944 111.905 33.2885H112.038V31.1384H115.563V44.0641C115.563 45.153 115.297 46.0642 114.763 46.7976C114.23 47.5309 113.491 48.081 112.546 48.4477C111.607 48.8199 110.527 49.006 109.305 49.006ZM109.38 41.0889C109.952 41.0889 110.435 40.9472 110.83 40.6639C111.23 40.375 111.535 39.9638 111.746 39.4305C111.963 38.8916 112.071 38.2471 112.071 37.497C112.071 36.747 111.966 36.097 111.755 35.5469C111.544 34.9913 111.238 34.5608 110.838 34.2552C110.438 33.9496 109.952 33.7968 109.38 33.7968C108.796 33.7968 108.304 33.9552 107.904 34.2719C107.504 34.583 107.202 35.0163 106.996 35.5719C106.79 36.1275 106.688 36.7692 106.688 37.497C106.688 38.236 106.79 38.8749 106.996 39.4138C107.207 39.9472 107.51 40.3611 107.904 40.6556C108.304 40.9445 108.796 41.0889 109.38 41.0889Z" fill="white"/>
<path d="M95.3425 44.1891C94.0258 44.1891 92.8924 43.9224 91.9424 43.389C90.9979 42.8501 90.27 42.089 89.7589 41.1056C89.2478 40.1166 88.9922 38.9471 88.9922 37.597C88.9922 36.2803 89.2478 35.1247 89.7589 34.1302C90.27 33.1357 90.9895 32.3606 91.9174 31.8051C92.8507 31.2495 93.9452 30.9717 95.2009 30.9717C96.0454 30.9717 96.8315 31.1078 97.5593 31.38C98.2927 31.6467 98.9316 32.0495 99.4761 32.5884C100.026 33.1274 100.454 33.8052 100.76 34.6219C101.065 35.433 101.218 36.3831 101.218 37.472V38.4471H90.4089V36.247H97.876C97.876 35.7358 97.7649 35.283 97.5427 34.8886C97.3204 34.4941 97.0121 34.1857 96.6176 33.9635C96.2287 33.7357 95.7759 33.6218 95.2592 33.6218C94.7203 33.6218 94.2425 33.7468 93.8258 33.9968C93.4147 34.2413 93.0924 34.5719 92.8591 34.9886C92.6257 35.3997 92.5063 35.8581 92.5007 36.3636V38.4554C92.5007 39.0888 92.6174 39.636 92.8507 40.0972C93.0896 40.5583 93.4258 40.9139 93.8591 41.1639C94.2925 41.4139 94.8064 41.5389 95.4009 41.5389C95.7953 41.5389 96.1565 41.4834 96.4843 41.3723C96.8121 41.2611 97.0926 41.0945 97.326 40.8722C97.5593 40.65 97.7371 40.3778 97.8593 40.0555L101.143 40.2722C100.976 41.0611 100.634 41.7501 100.118 42.339C99.6067 42.9223 98.9455 43.3779 98.1344 43.7057C97.3288 44.028 96.3982 44.1891 95.3425 44.1891Z" fill="white"/>
<path d="M86.6654 26.8711V43.9387H83.1152V26.8711H86.6654Z" fill="white"/>
<path d="M74.9226 44.1891C73.6059 44.1891 72.4725 43.9224 71.5224 43.389C70.5779 42.8501 69.8501 42.089 69.339 41.1056C68.8278 40.1166 68.5723 38.9471 68.5723 37.597C68.5723 36.2803 68.8278 35.1247 69.339 34.1302C69.8501 33.1357 70.5696 32.3606 71.4974 31.8051C72.4308 31.2495 73.5253 30.9717 74.7809 30.9717C75.6254 30.9717 76.4116 31.1078 77.1394 31.38C77.8728 31.6467 78.5117 32.0495 79.0562 32.5884C79.6062 33.1274 80.034 33.8052 80.3396 34.6219C80.6452 35.433 80.7979 36.3831 80.7979 37.472V38.4471H69.989V36.247H77.4561C77.4561 35.7358 77.345 35.283 77.1227 34.8886C76.9005 34.4941 76.5922 34.1857 76.1977 33.9635C75.8088 33.7357 75.356 33.6218 74.8393 33.6218C74.3004 33.6218 73.8226 33.7468 73.4059 33.9968C72.9947 34.2413 72.6725 34.5719 72.4391 34.9886C72.2058 35.3997 72.0863 35.8581 72.0808 36.3636V38.4554C72.0808 39.0888 72.1975 39.636 72.4308 40.0972C72.6697 40.5583 73.0058 40.9139 73.4392 41.1639C73.8726 41.4139 74.3865 41.5389 74.981 41.5389C75.3754 41.5389 75.7366 41.4834 76.0643 41.3723C76.3921 41.2611 76.6727 41.0945 76.9061 40.8722C77.1394 40.65 77.3172 40.3778 77.4394 40.0555L80.7229 40.2722C80.5563 41.0611 80.2146 41.7501 79.6979 42.339C79.1867 42.9223 78.5256 43.3779 77.7144 43.7057C76.9088 44.028 75.9782 44.1891 74.9226 44.1891Z" fill="white"/>
<path d="M58.1343 43.9387H52.084V26.8711H58.1843C59.9011 26.8711 61.3789 27.2128 62.6179 27.8962C63.8569 28.574 64.8097 29.549 65.4764 30.8213C66.1487 32.0936 66.4848 33.6159 66.4848 35.3882C66.4848 37.1661 66.1487 38.694 65.4764 39.9718C64.8097 41.2497 63.8513 42.2303 62.6012 42.9137C61.3567 43.597 59.8677 43.9387 58.1343 43.9387ZM55.6925 40.8469H57.9843C59.051 40.8469 59.9483 40.658 60.6761 40.2802C61.4095 39.8968 61.9595 39.3051 62.3262 38.5051C62.6985 37.6995 62.8846 36.6605 62.8846 35.3882C62.8846 34.1271 62.6985 33.0964 62.3262 32.2964C61.9595 31.4964 61.4123 30.9074 60.6845 30.5296C59.9566 30.1518 59.0594 29.9629 57.9926 29.9629H55.6925V40.8469Z" fill="white"/>
<path d="M40.75 16.625C40.75 15.8656 40.1344 15.25 39.375 15.25H20.125C19.3656 15.25 18.75 15.8656 18.75 16.625V35.875C18.75 36.6344 19.3656 37.25 20.125 37.25H39.375C40.1344 37.25 40.75 36.6344 40.75 35.875V16.625ZM32.625 30.25C33.3844 30.25 34 30.8656 34 31.625C34 32.3844 33.3844 33 32.625 33H27.125C26.3656 33 25.75 32.3844 25.75 31.625C25.75 30.8656 26.3656 30.25 27.125 30.25H32.625ZM21.9028 19.1528C22.4398 18.6159 23.3102 18.6159 23.8472 19.1528L26.5972 21.9028C27.1341 22.4398 27.1341 23.3102 26.5972 23.8472L23.8472 26.5972C23.3102 27.1341 22.4398 27.1341 21.9028 26.5972C21.3659 26.0602 21.3659 25.1898 21.9028 24.6528L23.6807 22.875L21.9028 21.0972C21.3659 20.5602 21.3659 19.6898 21.9028 19.1528ZM43.5 35.875C43.5 38.1532 41.6532 40 39.375 40H20.125C17.8468 40 16 38.1532 16 35.875V16.625C16 14.3468 17.8468 12.5 20.125 12.5H39.375C41.6532 12.5 43.5 14.3468 43.5 16.625V35.875Z" fill="white"/>
</g>
<defs>
<clipPath id="clip0_659_127">
<rect width="190" height="56" fill="white"/>
</clipPath>
</defs>
</svg>
